<svg xmlns="http://www.w3.org/2000/svg" xmlns:xlink="http://www.w3.org/1999/xlink" width="500" zoomAndPan="magnify" viewBox="0 0 375 374.999991" height="500" preserveAspectRatio="xMidYMid meet" version="1.0"><defs><g/><clipPath id="3cb6b552e4"><path d="M 58 162 L 110.035156 162 L 110.035156 171 L 58 171 Z M 58 162 " clip-rule="nonzero"/></clipPath><clipPath id="2737c5a153"><path d="M 68 142 L 110.035156 142 L 110.035156 151 L 68 151 Z M 68 142 " clip-rule="nonzero"/></clipPath><clipPath id="b24b048eaf"><path d="M 89 152 L 110.035156 152 L 110.035156 161 L 89 161 Z M 89 152 " clip-rule="nonzero"/></clipPath><clipPath id="df9cea89e8"><path d="M 45.535156 162 L 55 162 L 55 171 L 45.535156 171 Z M 45.535156 162 " clip-rule="nonzero"/></clipPath><clipPath id="745ad9f5c1"><path d="M 70 171 L 110.035156 171 L 110.035156 180 L 70 180 Z M 70 171 " clip-rule="nonzero"/></clipPath><clipPath id="b7ff0f28c5"><path d="M 74 181 L 110.035156 181 L 110.035156 190 L 74 190 Z M 74 181 " clip-rule="nonzero"/></clipPath></defs><g fill="#ffffff" fill-opacity="1"><g transform="translate(122.062776, 162.503964)"><g><path d="M 4.84375 -2.96875 L 9.875 -2.96875 L 9.875 0 L 1.5 0 L 1.5 -15.203125 L 4.84375 -15.203125 Z M 4.84375 -2.96875 "/></g></g></g><g fill="#ffffff" fill-opacity="1"><g transform="translate(132.885213, 162.503964)"><g><path d="M 7.71875 0.203125 C 6.539062 0.203125 5.472656 -0.0195312 4.515625 -0.46875 C 3.566406 -0.914062 2.8125 -1.519531 2.25 -2.28125 C 1.695312 -3.050781 1.421875 -3.910156 1.421875 -4.859375 L 1.421875 -15.203125 L 4.765625 -15.203125 L 4.765625 -5.5 C 4.765625 -4.71875 5.050781 -4.066406 5.625 -3.546875 C 6.195312 -3.023438 6.894531 -2.765625 7.71875 -2.765625 C 8.570312 -2.765625 9.285156 -3.023438 9.859375 -3.546875 C 10.429688 -4.066406 10.71875 -4.71875 10.71875 -5.5 L 10.71875 -15.203125 L 14.0625 -15.203125 L 14.0625 -4.859375 C 14.0625 -3.910156 13.78125 -3.050781 13.21875 -2.28125 C 12.664062 -1.519531 11.910156 -0.914062 10.953125 -0.46875 C 10.003906 -0.0195312 8.925781 0.203125 7.71875 0.203125 Z M 7.71875 0.203125 "/></g></g></g><g fill="#ffffff" fill-opacity="1"><g transform="translate(149.255602, 162.503964)"><g><path d="M 8.734375 0.203125 C 7.660156 0.203125 6.65625 0 5.71875 -0.40625 C 4.78125 -0.8125 3.953125 -1.375 3.234375 -2.09375 C 2.515625 -2.8125 1.953125 -3.640625 1.546875 -4.578125 C 1.140625 -5.515625 0.9375 -6.519531 0.9375 -7.59375 C 0.9375 -8.675781 1.140625 -9.6875 1.546875 -10.625 C 1.953125 -11.5625 2.515625 -12.390625 3.234375 -13.109375 C 3.953125 -13.828125 4.78125 -14.390625 5.71875 -14.796875 C 6.65625 -15.203125 7.660156 -15.40625 8.734375 -15.40625 C 10.242188 -15.40625 11.613281 -15.019531 12.84375 -14.25 C 14.070312 -13.476562 15.007812 -12.46875 15.65625 -11.21875 L 12.765625 -9.734375 C 12.390625 -10.453125 11.847656 -11.03125 11.140625 -11.46875 C 10.429688 -11.914062 9.628906 -12.140625 8.734375 -12.140625 C 7.890625 -12.140625 7.125 -11.9375 6.4375 -11.53125 C 5.757812 -11.132812 5.222656 -10.59375 4.828125 -9.90625 C 4.429688 -9.226562 4.234375 -8.457031 4.234375 -7.59375 C 4.234375 -6.738281 4.429688 -5.96875 4.828125 -5.28125 C 5.222656 -4.59375 5.757812 -4.050781 6.4375 -3.65625 C 7.125 -3.257812 7.890625 -3.0625 8.734375 -3.0625 C 9.628906 -3.0625 10.429688 -3.28125 11.140625 -3.71875 C 11.847656 -4.15625 12.390625 -4.738281 12.765625 -5.46875 L 15.65625 -3.984375 C 15.007812 -2.742188 14.070312 -1.734375 12.84375 -0.953125 C 11.613281 -0.179688 10.242188 0.203125 8.734375 0.203125 Z M 8.734375 0.203125 "/></g></g></g><g fill="#ffffff" fill-opacity="1"><g transform="translate(166.461988, 162.503964)"><g><path d="M 1.625 0 L 1.625 -15.203125 L 4.96875 -15.203125 L 4.96875 0 Z M 1.625 0 "/></g></g></g><g fill="#ffffff" fill-opacity="1"><g transform="translate(173.915126, 162.503964)"><g><path d="M 10.796875 0 L 9.859375 -2.859375 L 4.1875 -2.859375 L 3.25 0 L -0.328125 0 L 5.140625 -15.203125 L 8.890625 -15.203125 L 14.359375 0 Z M 5.0625 -5.65625 L 8.96875 -5.65625 L 7.015625 -11.671875 Z M 5.0625 -5.65625 "/></g></g></g><g fill="#ffffff" fill-opacity="1"><g transform="translate(188.841534, 162.503964)"><g><path d="M 12.40625 -15.203125 L 15.734375 -15.203125 L 15.734375 0 L 12.28125 0 L 4.84375 -10.078125 L 4.84375 0 L 1.5 0 L 1.5 -15.203125 L 4.9375 -15.203125 L 12.40625 -5.140625 Z M 12.40625 -15.203125 "/></g></g></g><g fill="#ffffff" fill-opacity="1"><g transform="translate(206.985241, 162.503964)"><g><path d="M 8.734375 0.203125 C 7.660156 0.203125 6.65625 0 5.71875 -0.40625 C 4.78125 -0.8125 3.953125 -1.375 3.234375 -2.09375 C 2.515625 -2.8125 1.953125 -3.640625 1.546875 -4.578125 C 1.140625 -5.515625 0.9375 -6.519531 0.9375 -7.59375 C 0.9375 -8.675781 1.140625 -9.6875 1.546875 -10.625 C 1.953125 -11.5625 2.515625 -12.390625 3.234375 -13.109375 C 3.953125 -13.828125 4.78125 -14.390625 5.71875 -14.796875 C 6.65625 -15.203125 7.660156 -15.40625 8.734375 -15.40625 C 9.816406 -15.40625 10.832031 -15.203125 11.78125 -14.796875 C 12.726562 -14.390625 13.554688 -13.828125 14.265625 -13.109375 C 14.972656 -12.390625 15.53125 -11.5625 15.9375 -10.625 C 16.34375 -9.6875 16.546875 -8.675781 16.546875 -7.59375 C 16.546875 -6.519531 16.34375 -5.515625 15.9375 -4.578125 C 15.53125 -3.640625 14.972656 -2.8125 14.265625 -2.09375 C 13.554688 -1.375 12.726562 -0.8125 11.78125 -0.40625 C 10.832031 0 9.816406 0.203125 8.734375 0.203125 Z M 8.734375 -3.0625 C 9.597656 -3.0625 10.367188 -3.257812 11.046875 -3.65625 C 11.734375 -4.050781 12.273438 -4.59375 12.671875 -5.28125 C 13.078125 -5.96875 13.28125 -6.738281 13.28125 -7.59375 C 13.28125 -8.457031 13.078125 -9.226562 12.671875 -9.90625 C 12.273438 -10.59375 11.734375 -11.132812 11.046875 -11.53125 C 10.367188 -11.9375 9.597656 -12.140625 8.734375 -12.140625 C 7.890625 -12.140625 7.125 -11.9375 6.4375 -11.53125 C 5.757812 -11.132812 5.222656 -10.59375 4.828125 -9.90625 C 4.429688 -9.226562 4.234375 -8.457031 4.234375 -7.59375 C 4.234375 -6.738281 4.429688 -5.96875 4.828125 -5.28125 C 5.222656 -4.59375 5.757812 -4.050781 6.4375 -3.65625 C 7.125 -3.257812 7.890625 -3.0625 8.734375 -3.0625 Z M 8.734375 -3.0625 "/></g></g></g><g fill="#ffffff" fill-opacity="1"><g transform="translate(225.382283, 162.503964)"><g/></g></g><g fill="#ffffff" fill-opacity="1"><g transform="translate(232.354088, 162.503964)"><g><path d="M 4.84375 -2.96875 L 9.875 -2.96875 L 9.875 0 L 1.5 0 L 1.5 -15.203125 L 4.84375 -15.203125 Z M 4.84375 -2.96875 "/></g></g></g><g fill="#ffffff" fill-opacity="1"><g transform="translate(243.176525, 162.503964)"><g><path d="M 10.765625 -12.265625 L 4.96875 -12.265625 L 4.96875 -9.0625 L 9.9375 -9.0625 L 9.9375 -6.125 L 4.96875 -6.125 L 4.96875 -2.9375 L 10.765625 -2.9375 L 10.765625 0 L 1.625 0 L 1.625 -15.203125 L 10.765625 -15.203125 Z M 10.765625 -12.265625 "/></g></g></g><g fill="#ffffff" fill-opacity="1"><g transform="translate(255.873619, 162.503964)"><g><path d="M 8.734375 0.203125 C 7.660156 0.203125 6.65625 0 5.71875 -0.40625 C 4.78125 -0.8125 3.953125 -1.375 3.234375 -2.09375 C 2.515625 -2.8125 1.953125 -3.640625 1.546875 -4.578125 C 1.140625 -5.515625 0.9375 -6.519531 0.9375 -7.59375 C 0.9375 -8.675781 1.140625 -9.6875 1.546875 -10.625 C 1.953125 -11.5625 2.515625 -12.390625 3.234375 -13.109375 C 3.953125 -13.828125 4.78125 -14.390625 5.71875 -14.796875 C 6.65625 -15.203125 7.660156 -15.40625 8.734375 -15.40625 C 10.242188 -15.40625 11.613281 -15.019531 12.84375 -14.25 C 14.070312 -13.476562 15.007812 -12.46875 15.65625 -11.21875 L 12.765625 -9.734375 C 12.390625 -10.453125 11.847656 -11.03125 11.140625 -11.46875 C 10.429688 -11.914062 9.628906 -12.140625 8.734375 -12.140625 C 7.890625 -12.140625 7.125 -11.9375 6.4375 -11.53125 C 5.757812 -11.132812 5.222656 -10.59375 4.828125 -9.90625 C 4.429688 -9.226562 4.234375 -8.457031 4.234375 -7.59375 C 4.234375 -6.738281 4.429688 -5.96875 4.828125 -5.28125 C 5.222656 -4.59375 5.757812 -4.050781 6.4375 -3.65625 C 7.125 -3.257812 7.890625 -3.0625 8.734375 -3.0625 C 9.628906 -3.0625 10.429688 -3.28125 11.140625 -3.71875 C 11.847656 -4.15625 12.390625 -4.738281 12.765625 -5.46875 L 15.65625 -3.984375 C 15.007812 -2.742188 14.070312 -1.734375 12.84375 -0.953125 C 11.613281 -0.179688 10.242188 0.203125 8.734375 0.203125 Z M 8.734375 0.203125 "/></g></g></g><g fill="#ffffff" fill-opacity="1"><g transform="translate(273.079999, 162.503964)"><g><path d="M 11.015625 -15.203125 L 14.34375 -15.203125 L 14.34375 0 L 11.015625 0 L 11.015625 -6.125 L 4.84375 -6.125 L 4.84375 0 L 1.5 0 L 1.5 -15.203125 L 4.84375 -15.203125 L 4.84375 -9.09375 L 11.015625 -9.09375 Z M 11.015625 -15.203125 "/></g></g></g><g fill="#ffffff" fill-opacity="1"><g transform="translate(289.830387, 162.503964)"><g><path d="M 12.40625 -15.203125 L 15.734375 -15.203125 L 15.734375 0 L 12.28125 0 L 4.84375 -10.078125 L 4.84375 0 L 1.5 0 L 1.5 -15.203125 L 4.9375 -15.203125 L 12.40625 -5.140625 Z M 12.40625 -15.203125 "/></g></g></g><g fill="#ffffff" fill-opacity="1"><g transform="translate(307.974099, 162.503964)"><g><path d="M 10.765625 -12.265625 L 4.96875 -12.265625 L 4.96875 -9.0625 L 9.9375 -9.0625 L 9.9375 -6.125 L 4.96875 -6.125 L 4.96875 -2.9375 L 10.765625 -2.9375 L 10.765625 0 L 1.625 0 L 1.625 -15.203125 L 10.765625 -15.203125 Z M 10.765625 -12.265625 "/></g></g></g><g fill="#ffffff" fill-opacity="1"><g transform="translate(320.671185, 162.503964)"><g><path d="M 9.421875 -6.25 L 13.671875 0 L 9.9375 0 L 6.1875 -5.875 L 4.84375 -5.875 L 4.84375 0 L 1.5 0 L 1.5 -15.203125 L 7.953125 -15.203125 C 8.828125 -15.203125 9.601562 -14.992188 10.28125 -14.578125 C 10.957031 -14.160156 11.492188 -13.597656 11.890625 -12.890625 C 12.285156 -12.179688 12.484375 -11.394531 12.484375 -10.53125 C 12.484375 -9.507812 12.195312 -8.609375 11.625 -7.828125 C 11.050781 -7.046875 10.316406 -6.519531 9.421875 -6.25 Z M 7.453125 -8.640625 C 7.992188 -8.640625 8.4375 -8.804688 8.78125 -9.140625 C 9.125 -9.484375 9.296875 -9.914062 9.296875 -10.4375 C 9.296875 -10.957031 9.125 -11.382812 8.78125 -11.71875 C 8.4375 -12.0625 7.992188 -12.234375 7.453125 -12.234375 L 4.84375 -12.234375 L 4.84375 -8.640625 Z M 7.453125 -8.640625 "/></g></g></g><g fill="#ffffff" fill-opacity="1"><g transform="translate(132.210072, 184.200002)"><g><path d="M 11.234375 -9 L 12.21875 -9 L 9.421875 0 L 8.421875 0 L 6.0625 -7.984375 L 3.75 0 L 2.734375 0 L -0.09375 -9 L 0.9375 -9 L 3.21875 -1.625 L 5.390625 -9 L 6.734375 -9 L 8.921875 -1.609375 Z M 11.234375 -9 "/></g></g></g><g fill="#ffffff" fill-opacity="1"><g transform="translate(148.365128, 184.200002)"><g><path d="M 6.09375 -8.0625 L 2.125 -8.0625 L 2.125 -4.96875 L 5.578125 -4.96875 L 5.578125 -4.03125 L 2.125 -4.03125 L 2.125 -0.9375 L 6.09375 -0.9375 L 6.09375 0 L 1.171875 0 L 1.171875 -9 L 6.09375 -9 Z M 6.09375 -8.0625 "/></g></g></g><g fill="#ffffff" fill-opacity="1"><g transform="translate(159.375197, 184.200002)"><g><path d="M 5.53125 -4.5625 C 6 -4.394531 6.382812 -4.125 6.6875 -3.75 C 6.988281 -3.375 7.140625 -2.914062 7.140625 -2.375 C 7.140625 -1.914062 7.03125 -1.503906 6.8125 -1.140625 C 6.59375 -0.773438 6.296875 -0.492188 5.921875 -0.296875 C 5.554688 -0.0976562 5.144531 0 4.6875 0 L 1.09375 0 L 1.09375 -9 L 4.359375 -9 C 4.828125 -9 5.25 -8.894531 5.625 -8.6875 C 6 -8.488281 6.296875 -8.207031 6.515625 -7.84375 C 6.742188 -7.488281 6.859375 -7.070312 6.859375 -6.59375 C 6.859375 -6.113281 6.738281 -5.695312 6.5 -5.34375 C 6.257812 -5 5.9375 -4.738281 5.53125 -4.5625 Z M 5.890625 -6.53125 C 5.890625 -6.96875 5.726562 -7.328125 5.40625 -7.609375 C 5.09375 -7.898438 4.710938 -8.046875 4.265625 -8.046875 L 2.046875 -8.046875 L 2.046875 -4.96875 L 4.265625 -4.96875 C 4.710938 -4.96875 5.09375 -5.113281 5.40625 -5.40625 C 5.726562 -5.707031 5.890625 -6.082031 5.890625 -6.53125 Z M 4.5625 -0.953125 C 5 -0.953125 5.378906 -1.09375 5.703125 -1.375 C 6.023438 -1.664062 6.1875 -2.03125 6.1875 -2.46875 C 6.1875 -2.914062 6.023438 -3.285156 5.703125 -3.578125 C 5.378906 -3.878906 5 -4.03125 4.5625 -4.03125 L 2.046875 -4.03125 L 2.046875 -0.953125 Z M 4.5625 -0.953125 "/></g></g></g><g fill="#ffffff" fill-opacity="1"><g transform="translate(171.240264, 184.200002)"><g/></g></g><g fill="#ffffff" fill-opacity="1"><g transform="translate(178.875333, 184.200002)"><g><path d="M 1.09375 0 L 1.09375 -9 L 3.5625 -9 C 4.175781 -9 4.753906 -8.878906 5.296875 -8.640625 C 5.847656 -8.410156 6.328125 -8.085938 6.734375 -7.671875 C 7.140625 -7.265625 7.460938 -6.789062 7.703125 -6.25 C 7.941406 -5.707031 8.0625 -5.125 8.0625 -4.5 C 8.0625 -3.875 7.941406 -3.289062 7.703125 -2.75 C 7.460938 -2.207031 7.140625 -1.726562 6.734375 -1.3125 C 6.328125 -0.90625 5.847656 -0.582031 5.296875 -0.34375 C 4.753906 -0.113281 4.175781 0 3.5625 0 Z M 2.046875 -0.953125 L 3.546875 -0.953125 C 4.210938 -0.953125 4.8125 -1.109375 5.34375 -1.421875 C 5.882812 -1.734375 6.3125 -2.15625 6.625 -2.6875 C 6.9375 -3.226562 7.09375 -3.832031 7.09375 -4.5 C 7.09375 -5.175781 6.9375 -5.78125 6.625 -6.3125 C 6.3125 -6.84375 5.882812 -7.265625 5.34375 -7.578125 C 4.8125 -7.890625 4.210938 -8.046875 3.546875 -8.046875 L 2.046875 -8.046875 Z M 2.046875 -0.953125 "/></g></g></g><g fill="#ffffff" fill-opacity="1"><g transform="translate(191.685396, 184.200002)"><g><path d="M 6.09375 -8.0625 L 2.125 -8.0625 L 2.125 -4.96875 L 5.578125 -4.96875 L 5.578125 -4.03125 L 2.125 -4.03125 L 2.125 -0.9375 L 6.09375 -0.9375 L 6.09375 0 L 1.171875 0 L 1.171875 -9 L 6.09375 -9 Z M 6.09375 -8.0625 "/></g></g></g><g fill="#ffffff" fill-opacity="1"><g transform="translate(202.695465, 184.200002)"><g><path d="M 6.53125 -9 L 7.578125 -9 L 4.3125 0 L 3.25 0 L 0 -9 L 1.0625 -9 L 3.796875 -1.234375 Z M 6.53125 -9 "/></g></g></g><g fill="#ffffff" fill-opacity="1"><g transform="translate(214.290532, 184.200002)"><g><path d="M 6.09375 -8.0625 L 2.125 -8.0625 L 2.125 -4.96875 L 5.578125 -4.96875 L 5.578125 -4.03125 L 2.125 -4.03125 L 2.125 -0.9375 L 6.09375 -0.9375 L 6.09375 0 L 1.171875 0 L 1.171875 -9 L 6.09375 -9 Z M 6.09375 -8.0625 "/></g></g></g><g fill="#ffffff" fill-opacity="1"><g transform="translate(225.3006, 184.200002)"><g><path d="M 2.0625 -0.953125 L 5.40625 -0.953125 L 5.40625 0 L 1.09375 0 L 1.09375 -9 L 2.0625 -9 Z M 2.0625 -0.953125 "/></g></g></g><g fill="#ffffff" fill-opacity="1"><g transform="translate(234.855672, 184.200002)"><g><path d="M 5.359375 0.125 C 4.710938 0.125 4.113281 0.00390625 3.5625 -0.234375 C 3.007812 -0.472656 2.519531 -0.804688 2.09375 -1.234375 C 1.664062 -1.660156 1.332031 -2.148438 1.09375 -2.703125 C 0.851562 -3.265625 0.734375 -3.863281 0.734375 -4.5 C 0.734375 -5.132812 0.851562 -5.726562 1.09375 -6.28125 C 1.332031 -6.84375 1.664062 -7.335938 2.09375 -7.765625 C 2.519531 -8.191406 3.007812 -8.523438 3.5625 -8.765625 C 4.113281 -9.003906 4.710938 -9.125 5.359375 -9.125 C 5.992188 -9.125 6.59375 -9.003906 7.15625 -8.765625 C 7.71875 -8.523438 8.207031 -8.191406 8.625 -7.765625 C 9.039062 -7.335938 9.367188 -6.84375 9.609375 -6.28125 C 9.847656 -5.726562 9.96875 -5.132812 9.96875 -4.5 C 9.96875 -3.863281 9.847656 -3.265625 9.609375 -2.703125 C 9.367188 -2.148438 9.039062 -1.660156 8.625 -1.234375 C 8.207031 -0.804688 7.71875 -0.472656 7.15625 -0.234375 C 6.59375 0.00390625 5.992188 0.125 5.359375 0.125 Z M 5.359375 -0.84375 C 6.035156 -0.84375 6.648438 -1.003906 7.203125 -1.328125 C 7.765625 -1.648438 8.207031 -2.085938 8.53125 -2.640625 C 8.851562 -3.203125 9.015625 -3.820312 9.015625 -4.5 C 9.015625 -5.175781 8.851562 -5.789062 8.53125 -6.34375 C 8.207031 -6.90625 7.765625 -7.347656 7.203125 -7.671875 C 6.648438 -7.992188 6.035156 -8.15625 5.359375 -8.15625 C 4.679688 -8.15625 4.066406 -7.992188 3.515625 -7.671875 C 2.960938 -7.347656 2.519531 -6.90625 2.1875 -6.34375 C 1.851562 -5.789062 1.6875 -5.175781 1.6875 -4.5 C 1.6875 -3.820312 1.851562 -3.203125 2.1875 -2.640625 C 2.519531 -2.085938 2.960938 -1.648438 3.515625 -1.328125 C 4.066406 -1.003906 4.679688 -0.84375 5.359375 -0.84375 Z M 5.359375 -0.84375 "/></g></g></g><g fill="#ffffff" fill-opacity="1"><g transform="translate(249.600742, 184.200002)"><g><path d="M 4.3125 -9 C 4.789062 -9 5.21875 -8.882812 5.59375 -8.65625 C 5.96875 -8.4375 6.265625 -8.132812 6.484375 -7.75 C 6.710938 -7.375 6.828125 -6.957031 6.828125 -6.5 C 6.828125 -6.039062 6.710938 -5.617188 6.484375 -5.234375 C 6.265625 -4.859375 5.96875 -4.554688 5.59375 -4.328125 C 5.21875 -4.109375 4.789062 -4 4.3125 -4 L 2.0625 -4 L 2.0625 0 L 1.09375 0 L 1.09375 -9 Z M 4.234375 -4.921875 C 4.679688 -4.921875 5.0625 -5.054688 5.375 -5.328125 C 5.695312 -5.609375 5.859375 -5.992188 5.859375 -6.484375 C 5.859375 -6.960938 5.695312 -7.34375 5.375 -7.625 C 5.0625 -7.914062 4.679688 -8.0625 4.234375 -8.0625 L 2.0625 -8.0625 L 2.0625 -4.921875 Z M 4.234375 -4.921875 "/></g></g></g><g fill="#ffffff" fill-opacity="1"><g transform="translate(260.700801, 184.200002)"><g><path d="M 9.03125 -9 L 10.03125 -9 L 10.03125 0 L 9.09375 0 L 9.09375 -7.078125 L 5.953125 0 L 5.15625 0 L 2.0625 -7.109375 L 2.0625 0 L 1.09375 0 L 1.09375 -9 L 2.109375 -9 L 5.5625 -1.15625 Z M 9.03125 -9 "/></g></g></g><g fill="#ffffff" fill-opacity="1"><g transform="translate(275.850855, 184.200002)"><g><path d="M 6.09375 -8.0625 L 2.125 -8.0625 L 2.125 -4.96875 L 5.578125 -4.96875 L 5.578125 -4.03125 L 2.125 -4.03125 L 2.125 -0.9375 L 6.09375 -0.9375 L 6.09375 0 L 1.171875 0 L 1.171875 -9 L 6.09375 -9 Z M 6.09375 -8.0625 "/></g></g></g><g fill="#ffffff" fill-opacity="1"><g transform="translate(286.860917, 184.200002)"><g><path d="M 7.5625 -9 L 8.5 -9 L 8.5 0 L 7.609375 0 L 2.0625 -7.390625 L 2.0625 0 L 1.09375 0 L 1.09375 -9 L 2 -9 L 7.5625 -1.609375 Z M 7.5625 -9 "/></g></g></g><g fill="#ffffff" fill-opacity="1"><g transform="translate(300.480988, 184.200002)"><g><path d="M 6.078125 -9 L 6.078125 -8.046875 L 3.578125 -8.046875 L 3.578125 0 L 2.625 0 L 2.625 -8.046875 L 0.140625 -8.046875 L 0.140625 -9 Z M 6.078125 -9 "/></g></g></g><g clip-path="url(#3cb6b552e4)"><path fill="#00abf0" d="M 132.300781 162.207031 L 90.785156 162.207031 L 89.011719 165.269531 L 84.90625 165.269531 L 83.132812 162.207031 C 81.605469 162.207031 62.449219 162.207031 60.921875 162.207031 L 58.628906 166.175781 L 60.921875 170.148438 C 62.449219 170.148438 81.605469 170.148438 83.132812 170.148438 L 84.90625 167.082031 L 89.011719 167.082031 L 90.785156 170.148438 L 132.300781 170.148438 C 132.757812 167.523438 132.757812 164.835938 132.300781 162.207031 Z M 132.300781 162.207031 " fill-opacity="1" fill-rule="nonzero"/></g><g clip-path="url(#2737c5a153)"><path fill="#00abf0" d="M 75.300781 150.625 L 77.074219 147.558594 L 81.179688 147.558594 L 82.953125 150.625 L 126.722656 150.625 C 118.496094 141.351562 109.269531 142.671875 98.144531 142.671875 L 82.953125 142.671875 L 81.179688 145.738281 L 77.074219 145.738281 L 75.300781 142.671875 L 70.714844 142.671875 L 68.421875 146.644531 L 70.714844 150.617188 L 75.300781 150.617188 Z M 75.300781 150.625 " fill-opacity="1" fill-rule="nonzero"/></g><g clip-path="url(#b24b048eaf)"><path fill="#00abf0" d="M 102.722656 155.507812 L 98.617188 155.507812 L 96.84375 152.445312 L 92.257812 152.445312 L 89.964844 156.414062 L 92.257812 160.386719 L 96.84375 160.386719 L 98.617188 157.320312 L 102.722656 157.320312 L 104.492188 160.386719 L 131.914062 160.386719 C 131.171875 157.484375 129.886719 154.800781 128.179688 152.4375 L 104.492188 152.4375 Z M 102.722656 155.507812 " fill-opacity="1" fill-rule="nonzero"/></g><g clip-path="url(#df9cea89e8)"><path fill="#00abf0" d="M 47.828125 162.207031 L 45.535156 166.175781 L 47.828125 170.15625 L 52.421875 170.15625 L 54.714844 166.175781 L 52.421875 162.207031 Z M 47.828125 162.207031 " fill-opacity="1" fill-rule="nonzero"/></g><path fill="#00abf0" d="M 76.871094 156.414062 L 79.164062 160.386719 L 83.757812 160.386719 L 86.050781 156.414062 L 83.757812 152.445312 L 79.164062 152.445312 Z M 76.871094 156.414062 " fill-opacity="1" fill-rule="nonzero"/><path fill="#00abf0" d="M 63.5 181.730469 L 61.199219 185.710938 L 63.5 189.679688 L 68.085938 189.679688 L 70.378906 185.710938 L 68.085938 181.730469 Z M 63.5 181.730469 " fill-opacity="1" fill-rule="nonzero"/><g clip-path="url(#745ad9f5c1)"><path fill="#00abf0" d="M 83.132812 175.03125 L 79.027344 175.03125 L 77.257812 171.96875 L 72.671875 171.96875 L 70.378906 175.9375 L 72.671875 179.910156 L 77.257812 179.910156 L 79.027344 176.84375 L 83.132812 176.84375 L 84.90625 179.910156 L 128.171875 179.910156 C 129.878906 177.546875 131.164062 174.859375 131.90625 171.960938 C 117.542969 171.960938 99.261719 171.960938 84.898438 171.960938 Z M 83.132812 175.03125 " fill-opacity="1" fill-rule="nonzero"/></g><g clip-path="url(#b7ff0f28c5)"><path fill="#00abf0" d="M 94.890625 184.804688 L 90.785156 184.804688 L 89.011719 181.738281 C 84.875 181.738281 80.730469 181.738281 76.585938 181.738281 L 74.292969 185.710938 L 76.585938 189.679688 C 80.730469 189.679688 84.867188 189.679688 89.011719 189.679688 L 90.785156 186.617188 L 94.890625 186.617188 L 96.664062 189.679688 C 108.410156 189.679688 118.28125 191.25 126.722656 181.730469 L 96.664062 181.730469 Z M 94.890625 184.804688 " fill-opacity="1" fill-rule="nonzero"/></g><path stroke-linecap="round" transform="matrix(0, 0.75, -0.75, 0, 112.763282, 138.053473)" fill="none" stroke-linejoin="miter" d="M 1.50162 1.502084 L 73.82975 1.502084 " stroke="#00abf0" stroke-width="3" stroke-opacity="1" stroke-miterlimit="4"/></svg>